<svg xmlns="http://www.w3.org/2000/svg" xmlns:xlink="http://www.w3.org/1999/xlink" width="60" zoomAndPan="magnify" viewBox="0 0 45 44.999999" height="60" preserveAspectRatio="xMidYMid meet" version="1.0"><defs><clipPath id="b86967e236"><path d="M 11 9 L 14 9 L 14 13 L 11 13 Z M 11 9 " clip-rule="nonzero"/></clipPath><clipPath id="4e15739293"><path d="M 7.261719 9.160156 L 13.355469 8.59375 L 14.007812 14.554688 L 7.914062 15.121094 Z M 7.261719 9.160156 " clip-rule="nonzero"/></clipPath><clipPath id="ebc563fb68"><path d="M 7.832031 14.179688 C 7.921875 13.796875 8.875 9.664062 8.960938 9.390625 C 9.304688 8.324219 12.777344 9.335938 12.9375 9.65625 C 13.199219 10.1875 13.570312 10.011719 13.527344 10.589844 C 13.421875 11.992188 13.625 12.074219 13.253906 12.453125 C 12.175781 13.550781 11.003906 13.835938 10.726562 14.53125 C 10.527344 15.03125 9.226562 15.207031 7.832031 14.179688 Z M 7.832031 14.179688 " clip-rule="evenodd"/></clipPath><clipPath id="5fcb175e9f"><path d="M 10 10 L 11 10 L 11 14 L 10 14 Z M 10 10 " clip-rule="nonzero"/></clipPath><clipPath id="7dfe7f87a8"><path d="M 7.261719 9.160156 L 13.355469 8.59375 L 14.007812 14.554688 L 7.914062 15.121094 Z M 7.261719 9.160156 " clip-rule="nonzero"/></clipPath><clipPath id="b283918461"><path d="M 7.832031 14.179688 C 7.921875 13.796875 8.875 9.664062 8.960938 9.390625 C 9.304688 8.324219 12.777344 9.335938 12.9375 9.65625 C 13.199219 10.1875 13.570312 10.011719 13.527344 10.589844 C 13.421875 11.992188 13.625 12.074219 13.253906 12.453125 C 12.175781 13.550781 11.003906 13.835938 10.726562 14.53125 C 10.527344 15.03125 9.226562 15.207031 7.832031 14.179688 Z M 7.832031 14.179688 " clip-rule="evenodd"/></clipPath><clipPath id="638b8ac6cd"><path d="M 9 9 L 12 9 L 12 12 L 9 12 Z M 9 9 " clip-rule="nonzero"/></clipPath><clipPath id="84c8ce82b0"><path d="M 7.261719 9.160156 L 13.355469 8.59375 L 14.007812 14.554688 L 7.914062 15.121094 Z M 7.261719 9.160156 " clip-rule="nonzero"/></clipPath><clipPath id="6027f4b18d"><path d="M 7.832031 14.179688 C 7.921875 13.796875 8.875 9.664062 8.960938 9.390625 C 9.304688 8.324219 12.777344 9.335938 12.9375 9.65625 C 13.199219 10.1875 13.570312 10.011719 13.527344 10.589844 C 13.421875 11.992188 13.625 12.074219 13.253906 12.453125 C 12.175781 13.550781 11.003906 13.835938 10.726562 14.53125 C 10.527344 15.03125 9.226562 15.207031 7.832031 14.179688 Z M 7.832031 14.179688 " clip-rule="evenodd"/></clipPath><clipPath id="95b8d7bb8c"><path d="M 10 9 L 13 9 L 13 12 L 10 12 Z M 10 9 " clip-rule="nonzero"/></clipPath><clipPath id="93e114aad0"><path d="M 7.261719 9.160156 L 13.355469 8.59375 L 14.007812 14.554688 L 7.914062 15.121094 Z M 7.261719 9.160156 " clip-rule="nonzero"/></clipPath><clipPath id="69b19362de"><path d="M 7.832031 14.179688 C 7.921875 13.796875 8.875 9.664062 8.960938 9.390625 C 9.304688 8.324219 12.777344 9.335938 12.9375 9.65625 C 13.199219 10.1875 13.570312 10.011719 13.527344 10.589844 C 13.421875 11.992188 13.625 12.074219 13.253906 12.453125 C 12.175781 13.550781 11.003906 13.835938 10.726562 14.53125 C 10.527344 15.03125 9.226562 15.207031 7.832031 14.179688 Z M 7.832031 14.179688 " clip-rule="evenodd"/></clipPath><clipPath id="c01bc2950c"><path d="M 11 9 L 13 9 L 13 12 L 11 12 Z M 11 9 " clip-rule="nonzero"/></clipPath><clipPath id="70a73b751c"><path d="M 7.261719 9.160156 L 13.355469 8.59375 L 14.007812 14.554688 L 7.914062 15.121094 Z M 7.261719 9.160156 " clip-rule="nonzero"/></clipPath><clipPath id="6640b1d89f"><path d="M 7.832031 14.179688 C 7.921875 13.796875 8.875 9.664062 8.960938 9.390625 C 9.304688 8.324219 12.777344 9.335938 12.9375 9.65625 C 13.199219 10.1875 13.570312 10.011719 13.527344 10.589844 C 13.421875 11.992188 13.625 12.074219 13.253906 12.453125 C 12.175781 13.550781 11.003906 13.835938 10.726562 14.53125 C 10.527344 15.03125 9.226562 15.207031 7.832031 14.179688 Z M 7.832031 14.179688 " clip-rule="evenodd"/></clipPath><clipPath id="a4388bdeec"><path d="M 37 17 L 38 17 L 38 20 L 37 20 Z M 37 17 " clip-rule="nonzero"/></clipPath><clipPath id="0f41bf6f88"><path d="M 37.835938 15.378906 L 42.855469 17.203125 L 40.382812 22.957031 L 35.363281 21.132812 Z M 37.835938 15.378906 " clip-rule="nonzero"/></clipPath><clipPath id="aefa79338a"><path d="M 40.367188 22.515625 C 42.363281 18.316406 42.4375 18.320312 42.386719 17.933594 C 42.269531 17.0625 39.414062 15.886719 39.222656 15.910156 C 38.554688 15.996094 36.265625 17.222656 37.027344 18.269531 C 37.730469 19.230469 36.816406 19.535156 37.511719 20.511719 C 37.800781 20.921875 37.351562 21.390625 37.480469 21.679688 C 37.765625 22.316406 40.125 22.496094 40.367188 22.515625 Z M 40.367188 22.515625 " clip-rule="evenodd"/></clipPath><clipPath id="ae3ad62d9a"><path d="M 36 16 L 40 16 L 40 19 L 36 19 Z M 36 16 " clip-rule="nonzero"/></clipPath><clipPath id="f24658d846"><path d="M 37.835938 15.378906 L 42.855469 17.203125 L 40.382812 22.957031 L 35.363281 21.132812 Z M 37.835938 15.378906 " clip-rule="nonzero"/></clipPath><clipPath id="2a3a5f4729"><path d="M 40.367188 22.515625 C 42.363281 18.316406 42.4375 18.320312 42.386719 17.933594 C 42.269531 17.0625 39.414062 15.886719 39.222656 15.910156 C 38.554688 15.996094 36.265625 17.222656 37.027344 18.269531 C 37.730469 19.230469 36.816406 19.535156 37.511719 20.511719 C 37.800781 20.921875 37.351562 21.390625 37.480469 21.679688 C 37.765625 22.316406 40.125 22.496094 40.367188 22.515625 Z M 40.367188 22.515625 " clip-rule="evenodd"/></clipPath><clipPath id="304a9c9bfe"><path d="M 37 16 L 40 16 L 40 18 L 37 18 Z M 37 16 " clip-rule="nonzero"/></clipPath><clipPath id="b106642dae"><path d="M 37.835938 15.378906 L 42.855469 17.203125 L 40.382812 22.957031 L 35.363281 21.132812 Z M 37.835938 15.378906 " clip-rule="nonzero"/></clipPath><clipPath id="0d3d831c97"><path d="M 40.367188 22.515625 C 42.363281 18.316406 42.4375 18.320312 42.386719 17.933594 C 42.269531 17.0625 39.414062 15.886719 39.222656 15.910156 C 38.554688 15.996094 36.265625 17.222656 37.027344 18.269531 C 37.730469 19.230469 36.816406 19.535156 37.511719 20.511719 C 37.800781 20.921875 37.351562 21.390625 37.480469 21.679688 C 37.765625 22.316406 40.125 22.496094 40.367188 22.515625 Z M 40.367188 22.515625 " clip-rule="evenodd"/></clipPath><clipPath id="b931cc82fa"><path d="M 38 15 L 41 15 L 41 18 L 38 18 Z M 38 15 " clip-rule="nonzero"/></clipPath><clipPath id="9fbf9b2d56"><path d="M 37.835938 15.378906 L 42.855469 17.203125 L 40.382812 22.957031 L 35.363281 21.132812 Z M 37.835938 15.378906 " clip-rule="nonzero"/></clipPath><clipPath id="f5fcc2a0f9"><path d="M 40.367188 22.515625 C 42.363281 18.316406 42.4375 18.320312 42.386719 17.933594 C 42.269531 17.0625 39.414062 15.886719 39.222656 15.910156 C 38.554688 15.996094 36.265625 17.222656 37.027344 18.269531 C 37.730469 19.230469 36.816406 19.535156 37.511719 20.511719 C 37.800781 20.921875 37.351562 21.390625 37.480469 21.679688 C 37.765625 22.316406 40.125 22.496094 40.367188 22.515625 Z M 40.367188 22.515625 " clip-rule="evenodd"/></clipPath></defs><path fill="#a58270" d="M 8.097656 29.699219 C 8.019531 31.144531 8.597656 39.910156 10.949219 42.160156 C 13.902344 44.996094 17.632812 43.691406 22.335938 43.578125 C 23.429688 43.554688 35.199219 44.339844 35.722656 44.160156 C 37.605469 43.511719 37.828125 40.894531 38.402344 35.417969 C 38.621094 33.300781 38.800781 28.402344 37.613281 25.785156 C 33.398438 16.480469 17.644531 17.894531 12.511719 23.472656 C 11.113281 24.992188 10.785156 25.46875 10.140625 26.90625 Z M 8.097656 29.699219 " fill-opacity="1" fill-rule="evenodd"/><path fill="#37241f" d="M 16.886719 19.601562 L 8.367188 33.273438 L 13.246094 32.707031 L 11.871094 44.160156 L 35.722656 44.160156 L 32.144531 21.058594 Z M 16.886719 19.601562 " fill-opacity="1" fill-rule="evenodd"/><path fill="#a58270" d="M 8.882812 27.878906 C 9.515625 29.339844 9.003906 29.039062 10.863281 29.109375 C 14.992188 29.269531 13.703125 43.941406 19.410156 44.160156 C 21.625 44.246094 27.644531 44.738281 28.257812 44.160156 C 33.128906 39.542969 32.355469 25.171875 34.042969 31.109375 C 34.277344 31.925781 36.664062 27.621094 37.953125 25.902344 C 38.347656 25.375 38.914062 25.472656 38.640625 24.972656 C 37.398438 22.671875 35.5 21.109375 35.339844 20.089844 C 35.160156 18.933594 34.9375 19.023438 34.042969 18.191406 C 33.117188 17.328125 32.4375 15.300781 32.347656 15.03125 C 30.074219 8.277344 31.265625 5.652344 28.328125 2.085938 C 26.679688 0.0859375 23.414062 0.195312 22.925781 0.246094 C 15.867188 1.027344 16.5 7.878906 16.460938 9.734375 C 16.402344 12.605469 15.136719 18.070312 14.992188 18.101562 C 11.90625 18.816406 8.902344 27.433594 8.882812 27.492188 Z M 8.882812 27.878906 " fill-opacity="1" fill-rule="evenodd"/><path fill="#fec3b1" d="M 7.832031 14.179688 C 7.921875 13.796875 8.875 9.664062 8.960938 9.390625 C 9.304688 8.324219 12.777344 9.335938 12.9375 9.65625 C 13.199219 10.1875 13.570312 10.011719 13.527344 10.589844 C 13.421875 11.992188 13.625 12.074219 13.253906 12.453125 C 12.175781 13.550781 11.003906 13.835938 10.726562 14.53125 C 10.527344 15.03125 9.226562 15.207031 7.832031 14.179688 Z M 7.832031 14.179688 " fill-opacity="1" fill-rule="evenodd"/><g clip-path="url(#b86967e236)"><g clip-path="url(#4e15739293)"><g clip-path="url(#ebc563fb68)"><path fill="#ec8479" d="M 13.464844 10.21875 C 13.492188 10.257812 13.480469 10.3125 13.441406 10.339844 C 13.402344 10.367188 13.347656 10.355469 13.324219 10.3125 C 13.265625 10.226562 13.21875 10.179688 13.171875 10.171875 C 13.140625 10.167969 13.117188 10.183594 13.089844 10.203125 C 13.050781 10.238281 13.015625 10.285156 12.980469 10.34375 C 12.789062 10.675781 12.671875 11.296875 12.660156 11.367188 C 12.644531 11.441406 12.617188 11.488281 12.578125 11.523438 C 12.542969 11.554688 12.5 11.570312 12.441406 11.585938 C 12.25 11.625 11.871094 11.613281 11.222656 12.34375 C 11.191406 12.378906 11.136719 12.378906 11.101562 12.347656 C 11.066406 12.3125 11.066406 12.257812 11.097656 12.222656 C 11.691406 11.550781 12.078125 11.46875 12.308594 11.429688 C 12.347656 11.421875 12.386719 11.417969 12.414062 11.410156 C 12.4375 11.40625 12.453125 11.398438 12.46875 11.386719 C 12.480469 11.375 12.488281 11.355469 12.492188 11.328125 C 12.503906 11.257812 12.632812 10.601562 12.835938 10.253906 C 12.890625 10.15625 12.953125 10.082031 13.015625 10.042969 C 13.070312 10.007812 13.128906 9.992188 13.1875 10 C 13.273438 10.011719 13.371094 10.070312 13.464844 10.21875 Z M 13.464844 10.21875 " fill-opacity="1" fill-rule="evenodd"/></g></g></g><g clip-path="url(#5fcb175e9f)"><g clip-path="url(#7dfe7f87a8)"><g clip-path="url(#b283918461)"><path fill="#ec8479" d="M 10.945312 13.183594 C 10.949219 13.230469 10.917969 13.273438 10.871094 13.277344 C 10.824219 13.28125 10.78125 13.242188 10.777344 13.195312 C 10.667969 12.109375 10.707031 11.996094 10.03125 11.003906 C 10.003906 10.964844 10.011719 10.910156 10.050781 10.882812 C 10.089844 10.855469 10.140625 10.867188 10.167969 10.90625 C 10.875 11.9375 10.835938 12.054688 10.945312 13.183594 Z M 10.945312 13.183594 " fill-opacity="1" fill-rule="evenodd"/></g></g></g><g clip-path="url(#638b8ac6cd)"><g clip-path="url(#84c8ce82b0)"><g clip-path="url(#6027f4b18d)"><path fill="#ec8479" d="M 10.683594 11.886719 C 10.636719 11.890625 10.597656 11.851562 10.59375 11.804688 C 10.589844 11.757812 10.625 11.714844 10.671875 11.714844 C 10.71875 11.710938 10.78125 11.71875 10.84375 11.710938 C 10.890625 11.707031 10.941406 11.695312 10.980469 11.660156 C 11.023438 11.621094 11.050781 11.554688 11.0625 11.449219 C 11.078125 11.324219 11.066406 11.148438 11.015625 10.902344 C 11.011719 10.867188 10.988281 10.832031 10.957031 10.796875 C 10.894531 10.726562 10.800781 10.660156 10.691406 10.597656 C 10.242188 10.328125 9.523438 10.117188 9.425781 10.089844 C 9.378906 10.074219 9.351562 10.027344 9.363281 9.980469 C 9.375 9.933594 9.421875 9.90625 9.46875 9.921875 C 9.570312 9.949219 10.3125 10.171875 10.777344 10.445312 C 10.902344 10.519531 11.007812 10.597656 11.082031 10.679688 C 11.136719 10.742188 11.171875 10.808594 11.183594 10.871094 C 11.238281 11.140625 11.25 11.332031 11.234375 11.472656 C 11.214844 11.632812 11.160156 11.730469 11.097656 11.789062 C 11.027344 11.851562 10.945312 11.878906 10.863281 11.886719 C 10.796875 11.890625 10.734375 11.886719 10.683594 11.886719 Z M 10.683594 11.886719 " fill-opacity="1" fill-rule="evenodd"/></g></g></g><g clip-path="url(#95b8d7bb8c)"><g clip-path="url(#93e114aad0)"><g clip-path="url(#69b19362de)"><path fill="#ec8479" d="M 11.136719 11.570312 C 11.097656 11.550781 11.078125 11.496094 11.097656 11.453125 C 11.117188 11.410156 11.167969 11.394531 11.210938 11.414062 C 11.363281 11.492188 11.480469 11.5 11.566406 11.460938 C 11.65625 11.417969 11.714844 11.332031 11.753906 11.238281 C 11.851562 11.019531 11.859375 10.753906 11.859375 10.742188 C 11.867188 10.671875 11.847656 10.628906 11.765625 10.566406 C 11.597656 10.4375 11.226562 10.257812 10.488281 9.835938 C 10.445312 9.8125 10.429688 9.757812 10.453125 9.714844 C 10.476562 9.675781 10.527344 9.660156 10.570312 9.683594 C 11.320312 10.113281 11.695312 10.296875 11.867188 10.429688 C 11.957031 10.496094 12 10.558594 12.019531 10.621094 C 12.035156 10.664062 12.035156 10.710938 12.027344 10.765625 C 12.027344 10.78125 12.015625 11.074219 11.910156 11.3125 C 11.851562 11.445312 11.765625 11.5625 11.640625 11.621094 C 11.515625 11.679688 11.351562 11.679688 11.136719 11.570312 Z M 11.136719 11.570312 " fill-opacity="1" fill-rule="evenodd"/></g></g></g><g clip-path="url(#c01bc2950c)"><g clip-path="url(#70a73b751c)"><g clip-path="url(#6640b1d89f)"><path fill="#ec8479" d="M 11.835938 11.347656 C 11.789062 11.332031 11.761719 11.285156 11.773438 11.238281 C 11.789062 11.191406 11.835938 11.164062 11.878906 11.179688 C 11.925781 11.191406 12.222656 11.289062 12.429688 11.121094 C 12.515625 11.050781 12.585938 10.933594 12.613281 10.742188 C 12.644531 10.503906 12.554688 10.328125 12.371094 10.164062 C 12.164062 9.980469 11.847656 9.820312 11.453125 9.625 C 11.410156 9.605469 11.390625 9.554688 11.410156 9.511719 C 11.429688 9.46875 11.480469 9.449219 11.523438 9.46875 C 11.9375 9.671875 12.265625 9.84375 12.480469 10.03125 C 12.714844 10.238281 12.824219 10.46875 12.78125 10.773438 C 12.746094 11.019531 12.648438 11.167969 12.535156 11.261719 C 12.273438 11.472656 11.894531 11.363281 11.835938 11.347656 Z M 11.835938 11.347656 " fill-opacity="1" fill-rule="evenodd"/></g></g></g><path fill="#fec3b1" d="M 10.386719 6.570312 C 10.582031 6.585938 12.800781 6.738281 12.824219 6.617188 C 12.84375 6.515625 10.160156 4.78125 9.121094 5.539062 C 9.015625 5.617188 8.261719 6.425781 10.386719 6.570312 Z M 10.386719 6.570312 " fill-opacity="1" fill-rule="evenodd"/><path fill="#fec3b1" d="M 13.625 6.308594 C 13.421875 6.109375 10.921875 3.660156 12.601562 3.007812 C 12.878906 2.902344 13.875 2.714844 13.625 6.308594 Z M 13.625 6.308594 " fill-opacity="1" fill-rule="evenodd"/><path fill="#fec3b1" d="M 37.851562 15.386719 C 37.65625 15.195312 35.882812 13.449219 36.558594 12.375 C 36.699219 12.148438 37.566406 12.023438 37.851562 15.386719 Z M 37.851562 15.386719 " fill-opacity="1" fill-rule="evenodd"/><path fill="#fec3b1" d="M 39.003906 15.132812 C 38.992188 14.839844 38.902344 12.671875 40.183594 11.652344 C 40.871094 11.105469 41.25 11.585938 41.230469 12.003906 C 41.199219 12.691406 39.210938 14.902344 39.003906 15.132812 Z M 39.003906 15.132812 " fill-opacity="1" fill-rule="evenodd"/><path fill="#fec3b1" d="M 40.367188 22.515625 C 42.363281 18.316406 42.4375 18.320312 42.386719 17.933594 C 42.269531 17.0625 39.414062 15.886719 39.222656 15.910156 C 38.554688 15.996094 36.265625 17.222656 37.027344 18.269531 C 37.730469 19.230469 36.816406 19.535156 37.511719 20.511719 C 37.800781 20.921875 37.351562 21.390625 37.480469 21.679688 C 37.765625 22.316406 40.125 22.496094 40.367188 22.515625 Z M 40.367188 22.515625 " fill-opacity="1" fill-rule="evenodd"/><g clip-path="url(#a4388bdeec)"><g clip-path="url(#0f41bf6f88)"><g clip-path="url(#aefa79338a)"><path fill="#ec8479" d="M 37.355469 19.597656 C 37.339844 19.644531 37.289062 19.671875 37.242188 19.65625 C 37.195312 19.644531 37.167969 19.597656 37.183594 19.550781 C 37.265625 19.304688 37.296875 19.316406 37.773438 17.671875 C 37.785156 17.625 37.835938 17.597656 37.882812 17.609375 C 37.929688 17.621094 37.957031 17.667969 37.945312 17.714844 C 37.46875 19.363281 37.4375 19.351562 37.355469 19.597656 Z M 37.355469 19.597656 " fill-opacity="1" fill-rule="evenodd"/></g></g></g><g clip-path="url(#ae3ad62d9a)"><g clip-path="url(#f24658d846)"><g clip-path="url(#2a3a5f4729)"><path fill="#ec8479" d="M 37.414062 18.566406 C 37.453125 18.59375 37.457031 18.648438 37.425781 18.6875 C 37.398438 18.726562 37.339844 18.734375 37.300781 18.707031 C 36.796875 18.347656 36.597656 17.546875 37.257812 17.09375 C 37.5 16.929688 37.800781 16.957031 38.121094 17.101562 C 38.558594 17.292969 39.039062 17.691406 39.46875 17.976562 C 39.507812 18.003906 39.515625 18.054688 39.488281 18.09375 C 39.457031 18.132812 39.402344 18.144531 39.363281 18.117188 C 38.941406 17.835938 38.46875 17.445312 38.042969 17.257812 C 37.789062 17.144531 37.550781 17.101562 37.359375 17.234375 C 36.8125 17.605469 36.992188 18.269531 37.414062 18.566406 Z M 37.414062 18.566406 " fill-opacity="1" fill-rule="evenodd"/></g></g></g><g clip-path="url(#304a9c9bfe)"><g clip-path="url(#b106642dae)"><g clip-path="url(#0d3d831c97)"><path fill="#ec8479" d="M 37.457031 17.019531 C 37.429688 17.058594 37.375 17.070312 37.332031 17.042969 C 37.292969 17.019531 37.28125 16.964844 37.308594 16.925781 C 37.488281 16.671875 37.691406 16.527344 37.90625 16.464844 C 38.222656 16.371094 38.558594 16.453125 38.871094 16.601562 C 39.359375 16.839844 39.78125 17.25 39.929688 17.359375 C 39.96875 17.386719 39.976562 17.441406 39.945312 17.480469 C 39.914062 17.515625 39.859375 17.523438 39.820312 17.496094 C 39.671875 17.390625 39.261719 16.988281 38.785156 16.757812 C 38.515625 16.625 38.226562 16.546875 37.953125 16.628906 C 37.777344 16.683594 37.609375 16.804688 37.457031 17.019531 Z M 37.457031 17.019531 " fill-opacity="1" fill-rule="evenodd"/></g></g></g><g clip-path="url(#b931cc82fa)"><g clip-path="url(#9fbf9b2d56)"><g clip-path="url(#f5fcc2a0f9)"><path fill="#ec8479" d="M 38.394531 16.445312 C 38.367188 16.488281 38.3125 16.5 38.269531 16.472656 C 38.230469 16.449219 38.21875 16.394531 38.246094 16.355469 C 38.554688 15.910156 39.039062 15.933594 39.511719 16.136719 C 40.171875 16.417969 40.800781 17.046875 40.804688 17.050781 C 40.84375 17.082031 40.84375 17.136719 40.808594 17.171875 C 40.773438 17.207031 40.71875 17.210938 40.679688 17.179688 C 40.675781 17.175781 40.070312 16.5625 39.433594 16.292969 C 39.046875 16.125 38.648438 16.082031 38.394531 16.445312 Z M 38.394531 16.445312 " fill-opacity="1" fill-rule="evenodd"/></g></g></g><path fill="#37241f" d="M 37.757812 21.085938 C 36.671875 20.765625 36.332031 23.328125 36.273438 23.34375 C 34.976562 23.707031 34.140625 26.089844 32.761719 29.367188 C 31.976562 31.246094 31.046875 34.558594 31.414062 35.511719 C 32.765625 38.988281 38.183594 36.292969 38.988281 33.65625 C 39.761719 31.136719 38.691406 31.851562 40.347656 29.21875 C 41.128906 27.976562 40.710938 26.425781 40.710938 24.847656 C 40.710938 24.257812 41.808594 22.761719 41.316406 22.136719 C 40.824219 21.507812 38.988281 21.449219 37.757812 21.085938 Z M 37.757812 21.085938 " fill-opacity="1" fill-rule="evenodd"/><path fill="#37241f" d="M 11.089844 14.199219 C 12.304688 14.210938 11.535156 16.820312 11.585938 16.851562 C 12.71875 17.59375 12.519531 20.175781 12.46875 23.792969 C 12.441406 25.867188 11.359375 30.136719 11.128906 31.125 C 10.453125 33.996094 6.261719 33.929688 4.691406 31.296875 C 3.839844 29.867188 4.382812 27.941406 4.441406 26.113281 C 4.527344 23.429688 5.515625 24.441406 5.011719 21.371094 C 4.769531 19.917969 5.855469 18.53125 6.535156 16.984375 C 6.789062 16.410156 6.34375 14.621094 7.101562 14.15625 C 7.863281 13.691406 9.707031 14.183594 11.089844 14.199219 Z M 11.089844 14.199219 " fill-opacity="1" fill-rule="evenodd"/><path fill="#fec3b1" d="M 18.515625 10.085938 C 18.476562 9.617188 18.597656 8.066406 19.484375 6.503906 C 20.023438 5.550781 21.292969 4.125 21.710938 4.203125 C 24.238281 4.675781 25.226562 5.578125 25.773438 5.996094 C 26.414062 6.488281 27.617188 7.945312 27.996094 9.320312 C 27.996094 9.320312 28.410156 10.859375 28.199219 11.445312 C 27.527344 13.316406 25.882812 14.585938 24.320312 14.886719 C 22.132812 15.304688 20.191406 13.980469 19.265625 13.019531 C 18.878906 12.617188 18.515625 10.085938 18.515625 10.085938 Z M 18.515625 10.085938 " fill-opacity="1" fill-rule="evenodd"/><path fill="#000000" d="M 16.597656 4.394531 C 16.414062 3.09375 28.570312 2.074219 29.257812 2.695312 C 29.699219 3.09375 29.984375 3.78125 30.042969 3.867188 C 30.90625 5.164062 31.273438 8.332031 31.152344 8.453125 C 31.019531 8.582031 28.585938 7.09375 27.953125 7.097656 C 24.265625 7.128906 18.507812 8.195312 18.082031 8.183594 C 17.132812 8.160156 16.039062 11.269531 15.820312 9.5625 C 15.632812 8.125 16.492188 4.546875 16.597656 4.394531 Z M 16.597656 4.394531 " fill-opacity="1" fill-rule="evenodd"/><path fill="#000000" d="M 16.890625 8.914062 C 17.816406 11.535156 14.179688 28.121094 16.890625 29.4375 C 17.304688 29.636719 24.480469 29.332031 30.121094 28.703125 C 31.382812 28.5625 31.347656 24.214844 30.121094 13.925781 C 29.949219 12.488281 29.941406 9.046875 28.480469 5.664062 C 28.25 6.558594 28.300781 7.390625 27.90625 7.886719 C 27.226562 8.742188 19.703125 9.421875 19.058594 9.3125 C 17.230469 9 17.351562 6.742188 16.628906 8.300781 Z M 16.890625 8.914062 " fill-opacity="1" fill-rule="evenodd"/></svg>